<mxfile host="app.diagrams.net" modified="2024-04-18T23:02:58.552Z" agent="Mozilla/5.0 (Windows NT 10.0; Win64; x64) AppleWebKit/537.36 (KHTML, like Gecko) Chrome/124.0.0.0 Safari/537.36" etag="DOopgAKPG2TGoUXcJqZg" version="24.2.3" type="github">
  <diagram name="Página-1" id="o0NYVvMFCD3RjRETvFw3">
    <mxGraphModel dx="1427" dy="1527" grid="1" gridSize="10" guides="1" tooltips="1" connect="1" arrows="1" fold="1" page="1" pageScale="1" pageWidth="827" pageHeight="1169" background="none" math="0" shadow="0">
      <root>
        <mxCell id="0" />
        <mxCell id="1" parent="0" />
        <mxCell id="n6jxIngj1ZCcTk-adQS_-1" value="&lt;div&gt;Pedido de B&lt;span style=&quot;background-color: initial;&quot;&gt;úsqueda&lt;/span&gt;&lt;/div&gt;" style="whiteSpace=wrap;html=1;align=center;labelBackgroundColor=none;fillColor=#A8DADC;strokeColor=#457B9D;fontColor=#1D3557;" parent="1" vertex="1">
          <mxGeometry x="130" y="100" width="100" height="40" as="geometry" />
        </mxCell>
        <mxCell id="n6jxIngj1ZCcTk-adQS_-2" value="número" style="ellipse;whiteSpace=wrap;html=1;align=center;fontStyle=4;labelBackgroundColor=none;fillColor=#A8DADC;strokeColor=#457B9D;fontColor=#1D3557;" parent="1" vertex="1">
          <mxGeometry x="290" y="100" width="100" height="40" as="geometry" />
        </mxCell>
        <mxCell id="n6jxIngj1ZCcTk-adQS_-3" value="" style="endArrow=none;html=1;rounded=0;exitX=1;exitY=0.5;exitDx=0;exitDy=0;entryX=0;entryY=0.5;entryDx=0;entryDy=0;labelBackgroundColor=none;strokeColor=#457B9D;fontColor=default;" parent="1" source="n6jxIngj1ZCcTk-adQS_-1" target="n6jxIngj1ZCcTk-adQS_-2" edge="1">
          <mxGeometry relative="1" as="geometry">
            <mxPoint x="330" y="300" as="sourcePoint" />
            <mxPoint x="490" y="300" as="targetPoint" />
            <Array as="points">
              <mxPoint x="260" y="120" />
            </Array>
          </mxGeometry>
        </mxCell>
        <mxCell id="n6jxIngj1ZCcTk-adQS_-10" value="" style="endArrow=none;html=1;rounded=0;entryX=0.25;entryY=0;entryDx=0;entryDy=0;labelBackgroundColor=none;strokeColor=#457B9D;fontColor=default;" parent="1" source="n6jxIngj1ZCcTk-adQS_-14" target="n6jxIngj1ZCcTk-adQS_-1" edge="1">
          <mxGeometry relative="1" as="geometry">
            <mxPoint x="151" y="71" as="sourcePoint" />
            <mxPoint x="280" y="89" as="targetPoint" />
          </mxGeometry>
        </mxCell>
        <mxCell id="n6jxIngj1ZCcTk-adQS_-11" value="" style="endArrow=none;html=1;rounded=0;exitX=0;exitY=1;exitDx=0;exitDy=0;entryX=0.75;entryY=0;entryDx=0;entryDy=0;labelBackgroundColor=none;strokeColor=#457B9D;fontColor=default;" parent="1" target="n6jxIngj1ZCcTk-adQS_-1" edge="1">
          <mxGeometry relative="1" as="geometry">
            <mxPoint x="234.64466094067257" y="64.14213562373095" as="sourcePoint" />
            <mxPoint x="490" y="300" as="targetPoint" />
          </mxGeometry>
        </mxCell>
        <mxCell id="n6jxIngj1ZCcTk-adQS_-12" value="" style="endArrow=none;html=1;rounded=0;entryX=0;entryY=0.5;entryDx=0;entryDy=0;labelBackgroundColor=none;strokeColor=#457B9D;fontColor=default;" parent="1" target="n6jxIngj1ZCcTk-adQS_-1" edge="1">
          <mxGeometry relative="1" as="geometry">
            <mxPoint x="90" y="109.5" as="sourcePoint" />
            <mxPoint x="250" y="109.5" as="targetPoint" />
          </mxGeometry>
        </mxCell>
        <mxCell id="n6jxIngj1ZCcTk-adQS_-13" value="descripción" style="ellipse;whiteSpace=wrap;html=1;align=center;labelBackgroundColor=none;fillColor=#A8DADC;strokeColor=#457B9D;fontColor=#1D3557;" parent="1" vertex="1">
          <mxGeometry x="-10" y="90" width="100" height="40" as="geometry" />
        </mxCell>
        <mxCell id="n6jxIngj1ZCcTk-adQS_-14" value="fecha_inicio" style="ellipse;whiteSpace=wrap;html=1;align=center;labelBackgroundColor=none;fillColor=#A8DADC;strokeColor=#457B9D;fontColor=#1D3557;" parent="1" vertex="1">
          <mxGeometry x="80" y="30" width="100" height="40" as="geometry" />
        </mxCell>
        <mxCell id="n6jxIngj1ZCcTk-adQS_-15" value="fecha_limite" style="ellipse;whiteSpace=wrap;html=1;align=center;labelBackgroundColor=none;fillColor=#A8DADC;strokeColor=#457B9D;fontColor=#1D3557;" parent="1" vertex="1">
          <mxGeometry x="210" y="30" width="100" height="40" as="geometry" />
        </mxCell>
        <mxCell id="n6jxIngj1ZCcTk-adQS_-17" value="" style="endArrow=none;html=1;rounded=0;exitX=0.5;exitY=1;exitDx=0;exitDy=0;entryX=0.5;entryY=1;entryDx=0;entryDy=0;entryPerimeter=0;labelBackgroundColor=none;strokeColor=#457B9D;fontColor=default;" parent="1" source="n6jxIngj1ZCcTk-adQS_-1" edge="1">
          <mxGeometry relative="1" as="geometry">
            <mxPoint x="330" y="300" as="sourcePoint" />
            <mxPoint x="180" y="200" as="targetPoint" />
          </mxGeometry>
        </mxCell>
        <mxCell id="n6jxIngj1ZCcTk-adQS_-19" value="Búsqueda de Facultad" style="whiteSpace=wrap;html=1;align=center;labelBackgroundColor=none;fillColor=#A8DADC;strokeColor=#457B9D;fontColor=#1D3557;" parent="1" vertex="1">
          <mxGeometry x="230" y="280" width="100" height="40" as="geometry" />
        </mxCell>
        <mxCell id="n6jxIngj1ZCcTk-adQS_-20" value="Búsqueda de Empresa" style="whiteSpace=wrap;html=1;align=center;labelBackgroundColor=none;fillColor=#A8DADC;strokeColor=#457B9D;fontColor=#1D3557;" parent="1" vertex="1">
          <mxGeometry x="30" y="280" width="100" height="40" as="geometry" />
        </mxCell>
        <mxCell id="n6jxIngj1ZCcTk-adQS_-21" value="" style="endArrow=none;html=1;rounded=0;entryX=0.5;entryY=0;entryDx=0;entryDy=0;exitX=0.5;exitY=1;exitDx=0;exitDy=0;labelBackgroundColor=none;strokeColor=#457B9D;fontColor=default;" parent="1" target="n6jxIngj1ZCcTk-adQS_-20" edge="1">
          <mxGeometry relative="1" as="geometry">
            <mxPoint x="180" y="240" as="sourcePoint" />
            <mxPoint x="490" y="300" as="targetPoint" />
          </mxGeometry>
        </mxCell>
        <mxCell id="n6jxIngj1ZCcTk-adQS_-22" value="" style="endArrow=none;html=1;rounded=0;entryX=0.5;entryY=1;entryDx=0;entryDy=0;exitX=0.5;exitY=0;exitDx=0;exitDy=0;labelBackgroundColor=none;strokeColor=#457B9D;fontColor=default;" parent="1" source="n6jxIngj1ZCcTk-adQS_-19" edge="1">
          <mxGeometry relative="1" as="geometry">
            <mxPoint x="330" y="300" as="sourcePoint" />
            <mxPoint x="180" y="240" as="targetPoint" />
          </mxGeometry>
        </mxCell>
        <mxCell id="n6jxIngj1ZCcTk-adQS_-23" value="&lt;u&gt;dirección&lt;/u&gt;" style="ellipse;whiteSpace=wrap;html=1;align=center;labelBackgroundColor=none;fillColor=#A8DADC;strokeColor=#457B9D;fontColor=#1D3557;" parent="1" vertex="1">
          <mxGeometry x="-480" y="340" width="100" height="40" as="geometry" />
        </mxCell>
        <mxCell id="n6jxIngj1ZCcTk-adQS_-24" value="mail" style="ellipse;whiteSpace=wrap;html=1;align=center;labelBackgroundColor=none;fillColor=#A8DADC;strokeColor=#457B9D;fontColor=#1D3557;" parent="1" vertex="1">
          <mxGeometry x="-250" y="270" width="100" height="40" as="geometry" />
        </mxCell>
        <mxCell id="n6jxIngj1ZCcTk-adQS_-25" value="nombre_empresa" style="ellipse;whiteSpace=wrap;html=1;align=center;labelBackgroundColor=none;fillColor=#A8DADC;strokeColor=#457B9D;fontColor=#1D3557;" parent="1" vertex="1">
          <mxGeometry x="-380" y="270" width="100" height="40" as="geometry" />
        </mxCell>
        <mxCell id="n6jxIngj1ZCcTk-adQS_-29" value="" style="endArrow=none;html=1;rounded=0;entryX=0.25;entryY=0;entryDx=0;entryDy=0;labelBackgroundColor=none;strokeColor=#457B9D;fontColor=default;exitX=0.5;exitY=1;exitDx=0;exitDy=0;" parent="1" source="n6jxIngj1ZCcTk-adQS_-25" target="n6jxIngj1ZCcTk-adQS_-39" edge="1">
          <mxGeometry relative="1" as="geometry">
            <mxPoint x="-20" y="299.5" as="sourcePoint" />
            <mxPoint x="140" y="299.5" as="targetPoint" />
          </mxGeometry>
        </mxCell>
        <mxCell id="n6jxIngj1ZCcTk-adQS_-30" value="" style="endArrow=none;html=1;rounded=0;entryX=0;entryY=0.5;entryDx=0;entryDy=0;labelBackgroundColor=none;strokeColor=#457B9D;fontColor=default;exitX=1;exitY=0.5;exitDx=0;exitDy=0;" parent="1" source="n6jxIngj1ZCcTk-adQS_-23" target="n6jxIngj1ZCcTk-adQS_-39" edge="1">
          <mxGeometry relative="1" as="geometry">
            <mxPoint x="-40" y="340" as="sourcePoint" />
            <mxPoint x="120" y="340" as="targetPoint" />
          </mxGeometry>
        </mxCell>
        <mxCell id="n6jxIngj1ZCcTk-adQS_-31" value="" style="endArrow=none;html=1;rounded=0;entryX=0.75;entryY=0;entryDx=0;entryDy=0;labelBackgroundColor=none;strokeColor=#457B9D;fontColor=default;exitX=0.5;exitY=1;exitDx=0;exitDy=0;" parent="1" source="n6jxIngj1ZCcTk-adQS_-24" target="n6jxIngj1ZCcTk-adQS_-39" edge="1">
          <mxGeometry relative="1" as="geometry">
            <mxPoint x="80" y="359.5" as="sourcePoint" />
            <mxPoint x="240" y="359.5" as="targetPoint" />
            <Array as="points" />
          </mxGeometry>
        </mxCell>
        <mxCell id="n6jxIngj1ZCcTk-adQS_-34" value="&lt;u&gt;nombre_institucion&lt;/u&gt;" style="ellipse;whiteSpace=wrap;html=1;align=center;labelBackgroundColor=none;fillColor=#A8DADC;strokeColor=#457B9D;fontColor=#1D3557;" parent="1" vertex="1">
          <mxGeometry x="610" y="270" width="120" height="40" as="geometry" />
        </mxCell>
        <mxCell id="n6jxIngj1ZCcTk-adQS_-36" value="" style="endArrow=none;html=1;rounded=0;entryX=0;entryY=0.5;entryDx=0;entryDy=0;exitX=1;exitY=1;exitDx=0;exitDy=0;labelBackgroundColor=none;strokeColor=#457B9D;fontColor=default;" parent="1" source="n6jxIngj1ZCcTk-adQS_-19" target="OU5z0TtAZB7W2D-WTTpE-47" edge="1">
          <mxGeometry relative="1" as="geometry">
            <mxPoint x="130" y="300" as="sourcePoint" />
            <mxPoint x="364.64466094067257" y="345.85786437626905" as="targetPoint" />
          </mxGeometry>
        </mxCell>
        <mxCell id="n6jxIngj1ZCcTk-adQS_-37" value="" style="endArrow=none;html=1;rounded=0;entryX=0.5;entryY=1;entryDx=0;entryDy=0;exitX=0.5;exitY=0;exitDx=0;exitDy=0;labelBackgroundColor=none;strokeColor=#457B9D;fontColor=default;" parent="1" source="n6jxIngj1ZCcTk-adQS_-38" target="n6jxIngj1ZCcTk-adQS_-34" edge="1">
          <mxGeometry relative="1" as="geometry">
            <mxPoint x="130" y="300" as="sourcePoint" />
            <mxPoint x="290" y="300" as="targetPoint" />
          </mxGeometry>
        </mxCell>
        <mxCell id="n6jxIngj1ZCcTk-adQS_-38" value="Facultad" style="whiteSpace=wrap;html=1;align=center;labelBackgroundColor=none;fillColor=#A8DADC;strokeColor=#457B9D;fontColor=#1D3557;" parent="1" vertex="1">
          <mxGeometry x="620" y="380" width="100" height="40" as="geometry" />
        </mxCell>
        <mxCell id="n6jxIngj1ZCcTk-adQS_-39" value="Empresa" style="whiteSpace=wrap;html=1;align=center;labelBackgroundColor=none;fillColor=#A8DADC;strokeColor=#457B9D;fontColor=#1D3557;" parent="1" vertex="1">
          <mxGeometry x="-340" y="340" width="100" height="40" as="geometry" />
        </mxCell>
        <mxCell id="n6jxIngj1ZCcTk-adQS_-40" value="publica" style="shape=rhombus;perimeter=rhombusPerimeter;whiteSpace=wrap;html=1;align=center;labelBackgroundColor=none;fillColor=#A8DADC;strokeColor=#457B9D;fontColor=#1D3557;" parent="1" vertex="1">
          <mxGeometry x="-140" y="330" width="120" height="60" as="geometry" />
        </mxCell>
        <mxCell id="n6jxIngj1ZCcTk-adQS_-41" value="1" style="endArrow=none;html=1;rounded=0;exitX=1;exitY=0.5;exitDx=0;exitDy=0;entryX=0;entryY=0.5;entryDx=0;entryDy=0;labelBackgroundColor=none;strokeColor=#457B9D;fontColor=default;" parent="1" source="n6jxIngj1ZCcTk-adQS_-39" target="n6jxIngj1ZCcTk-adQS_-40" edge="1">
          <mxGeometry x="1" y="20" relative="1" as="geometry">
            <mxPoint x="-70" y="270" as="sourcePoint" />
            <mxPoint x="90" y="270" as="targetPoint" />
            <mxPoint as="offset" />
          </mxGeometry>
        </mxCell>
        <mxCell id="n6jxIngj1ZCcTk-adQS_-42" value="N" style="endArrow=none;html=1;rounded=0;exitX=1;exitY=0.5;exitDx=0;exitDy=0;entryX=0.5;entryY=1;entryDx=0;entryDy=0;labelBackgroundColor=none;strokeColor=#457B9D;fontColor=default;" parent="1" source="n6jxIngj1ZCcTk-adQS_-40" target="n6jxIngj1ZCcTk-adQS_-20" edge="1">
          <mxGeometry x="-0.8571" y="20" relative="1" as="geometry">
            <mxPoint x="-70" y="270" as="sourcePoint" />
            <mxPoint x="90" y="270" as="targetPoint" />
            <Array as="points">
              <mxPoint x="80" y="360" />
            </Array>
            <mxPoint x="-1" as="offset" />
          </mxGeometry>
        </mxCell>
        <mxCell id="OU5z0TtAZB7W2D-WTTpE-1" value="de" style="strokeWidth=2;html=1;shape=mxgraph.flowchart.merge_or_storage;whiteSpace=wrap;" parent="1" vertex="1">
          <mxGeometry x="135" y="200" width="95" height="60" as="geometry" />
        </mxCell>
        <mxCell id="OU5z0TtAZB7W2D-WTTpE-2" value="Estudiante" style="whiteSpace=wrap;html=1;align=center;" parent="1" vertex="1">
          <mxGeometry x="1050" y="-110" width="100" height="40" as="geometry" />
        </mxCell>
        <mxCell id="OU5z0TtAZB7W2D-WTTpE-3" value="cedula" style="ellipse;whiteSpace=wrap;html=1;align=center;fontStyle=4;" parent="1" vertex="1">
          <mxGeometry x="890" y="-90" width="100" height="40" as="geometry" />
        </mxCell>
        <mxCell id="OU5z0TtAZB7W2D-WTTpE-4" value="Nombre" style="ellipse;whiteSpace=wrap;html=1;align=center;" parent="1" vertex="1">
          <mxGeometry x="1050" y="-40" width="100" height="40" as="geometry" />
        </mxCell>
        <mxCell id="OU5z0TtAZB7W2D-WTTpE-5" value="Fecha_nac" style="ellipse;whiteSpace=wrap;html=1;align=center;" parent="1" vertex="1">
          <mxGeometry x="990" y="-270" width="100" height="40" as="geometry" />
        </mxCell>
        <mxCell id="OU5z0TtAZB7W2D-WTTpE-6" value="dirección" style="ellipse;whiteSpace=wrap;html=1;align=center;" parent="1" vertex="1">
          <mxGeometry x="1185.5" y="-130" width="100" height="40" as="geometry" />
        </mxCell>
        <mxCell id="OU5z0TtAZB7W2D-WTTpE-7" value="email" style="ellipse;whiteSpace=wrap;html=1;align=center;" parent="1" vertex="1">
          <mxGeometry x="1195.5" y="-190" width="100" height="40" as="geometry" />
        </mxCell>
        <mxCell id="OU5z0TtAZB7W2D-WTTpE-8" value="cv" style="ellipse;whiteSpace=wrap;html=1;align=center;" parent="1" vertex="1">
          <mxGeometry x="1110" y="-230" width="100" height="40" as="geometry" />
        </mxCell>
        <mxCell id="OU5z0TtAZB7W2D-WTTpE-9" value="tel" style="ellipse;whiteSpace=wrap;html=1;align=center;" parent="1" vertex="1">
          <mxGeometry x="910" y="-150" width="100" height="40" as="geometry" />
        </mxCell>
        <mxCell id="OU5z0TtAZB7W2D-WTTpE-20" value="" style="endArrow=none;html=1;rounded=0;entryX=0.5;entryY=0;entryDx=0;entryDy=0;" parent="1" target="OU5z0TtAZB7W2D-WTTpE-2" edge="1">
          <mxGeometry relative="1" as="geometry">
            <mxPoint x="1040" y="-230" as="sourcePoint" />
            <mxPoint x="1200" y="-230" as="targetPoint" />
          </mxGeometry>
        </mxCell>
        <mxCell id="OU5z0TtAZB7W2D-WTTpE-21" value="" style="endArrow=none;html=1;rounded=0;exitX=0.5;exitY=0;exitDx=0;exitDy=0;" parent="1" source="OU5z0TtAZB7W2D-WTTpE-2" edge="1">
          <mxGeometry relative="1" as="geometry">
            <mxPoint x="1000" y="-190" as="sourcePoint" />
            <mxPoint x="1160" y="-190" as="targetPoint" />
          </mxGeometry>
        </mxCell>
        <mxCell id="OU5z0TtAZB7W2D-WTTpE-22" value="" style="endArrow=none;html=1;rounded=0;entryX=0;entryY=0;entryDx=0;entryDy=0;exitX=1;exitY=0.5;exitDx=0;exitDy=0;" parent="1" source="OU5z0TtAZB7W2D-WTTpE-9" target="OU5z0TtAZB7W2D-WTTpE-2" edge="1">
          <mxGeometry relative="1" as="geometry">
            <mxPoint x="1030" y="-150" as="sourcePoint" />
            <mxPoint x="1190" y="-150" as="targetPoint" />
          </mxGeometry>
        </mxCell>
        <mxCell id="OU5z0TtAZB7W2D-WTTpE-23" value="" style="endArrow=none;html=1;rounded=0;exitX=1;exitY=0;exitDx=0;exitDy=0;" parent="1" source="OU5z0TtAZB7W2D-WTTpE-2" edge="1">
          <mxGeometry relative="1" as="geometry">
            <mxPoint x="1040" y="-170" as="sourcePoint" />
            <mxPoint x="1200" y="-170" as="targetPoint" />
          </mxGeometry>
        </mxCell>
        <mxCell id="OU5z0TtAZB7W2D-WTTpE-24" value="" style="endArrow=none;html=1;rounded=0;exitX=1;exitY=0.5;exitDx=0;exitDy=0;" parent="1" source="OU5z0TtAZB7W2D-WTTpE-2" edge="1">
          <mxGeometry relative="1" as="geometry">
            <mxPoint x="1030" y="-110" as="sourcePoint" />
            <mxPoint x="1190" y="-110" as="targetPoint" />
          </mxGeometry>
        </mxCell>
        <mxCell id="OU5z0TtAZB7W2D-WTTpE-26" value="" style="endArrow=none;html=1;rounded=0;entryX=0;entryY=0.5;entryDx=0;entryDy=0;" parent="1" source="OU5z0TtAZB7W2D-WTTpE-3" target="OU5z0TtAZB7W2D-WTTpE-2" edge="1">
          <mxGeometry relative="1" as="geometry">
            <mxPoint x="940" y="-50" as="sourcePoint" />
            <mxPoint x="940" y="110" as="targetPoint" />
          </mxGeometry>
        </mxCell>
        <mxCell id="OU5z0TtAZB7W2D-WTTpE-27" value="" style="endArrow=none;html=1;rounded=0;entryX=0.5;entryY=1;entryDx=0;entryDy=0;exitX=0.5;exitY=0;exitDx=0;exitDy=0;" parent="1" source="OU5z0TtAZB7W2D-WTTpE-4" target="OU5z0TtAZB7W2D-WTTpE-2" edge="1">
          <mxGeometry relative="1" as="geometry">
            <mxPoint x="1090" y="-30" as="sourcePoint" />
            <mxPoint x="1250" y="-30" as="targetPoint" />
          </mxGeometry>
        </mxCell>
        <mxCell id="OU5z0TtAZB7W2D-WTTpE-28" value="Carrera" style="whiteSpace=wrap;html=1;align=center;" parent="1" vertex="1">
          <mxGeometry x="980" y="350" width="100" height="40" as="geometry" />
        </mxCell>
        <mxCell id="OU5z0TtAZB7W2D-WTTpE-29" value="nombre" style="ellipse;whiteSpace=wrap;html=1;align=center;" parent="1" vertex="1">
          <mxGeometry x="850" y="350" width="100" height="40" as="geometry" />
        </mxCell>
        <mxCell id="OU5z0TtAZB7W2D-WTTpE-30" value="nro_carrera" style="ellipse;whiteSpace=wrap;html=1;align=center;fontStyle=4;" parent="1" vertex="1">
          <mxGeometry x="900" y="290" width="100" height="40" as="geometry" />
        </mxCell>
        <mxCell id="OU5z0TtAZB7W2D-WTTpE-31" value="" style="endArrow=none;html=1;rounded=0;entryX=0.5;entryY=0;entryDx=0;entryDy=0;" parent="1" source="OU5z0TtAZB7W2D-WTTpE-30" target="OU5z0TtAZB7W2D-WTTpE-28" edge="1">
          <mxGeometry relative="1" as="geometry">
            <mxPoint x="1000" y="310" as="sourcePoint" />
            <mxPoint x="1160" y="310" as="targetPoint" />
          </mxGeometry>
        </mxCell>
        <mxCell id="OU5z0TtAZB7W2D-WTTpE-32" value="" style="endArrow=none;html=1;rounded=0;entryX=0;entryY=0.5;entryDx=0;entryDy=0;" parent="1" target="OU5z0TtAZB7W2D-WTTpE-28" edge="1">
          <mxGeometry relative="1" as="geometry">
            <mxPoint x="950" y="370" as="sourcePoint" />
            <mxPoint x="1110" y="370" as="targetPoint" />
          </mxGeometry>
        </mxCell>
        <mxCell id="OU5z0TtAZB7W2D-WTTpE-33" value="hace" style="shape=rhombus;perimeter=rhombusPerimeter;whiteSpace=wrap;html=1;align=center;" parent="1" vertex="1">
          <mxGeometry x="1140" y="300" width="120" height="60" as="geometry" />
        </mxCell>
        <mxCell id="OU5z0TtAZB7W2D-WTTpE-34" value="" style="endArrow=none;html=1;rounded=0;entryX=0;entryY=0.5;entryDx=0;entryDy=0;" parent="1" target="OU5z0TtAZB7W2D-WTTpE-33" edge="1">
          <mxGeometry relative="1" as="geometry">
            <mxPoint x="1080" y="370" as="sourcePoint" />
            <mxPoint x="1240" y="370" as="targetPoint" />
          </mxGeometry>
        </mxCell>
        <mxCell id="OU5z0TtAZB7W2D-WTTpE-36" value="n" style="edgeLabel;html=1;align=center;verticalAlign=middle;resizable=0;points=[];" parent="OU5z0TtAZB7W2D-WTTpE-34" vertex="1" connectable="0">
          <mxGeometry x="-0.6846" y="-1" relative="1" as="geometry">
            <mxPoint as="offset" />
          </mxGeometry>
        </mxCell>
        <mxCell id="OU5z0TtAZB7W2D-WTTpE-35" value="" style="endArrow=none;html=1;rounded=0;entryX=1;entryY=1;entryDx=0;entryDy=0;exitX=0.5;exitY=0;exitDx=0;exitDy=0;" parent="1" source="OU5z0TtAZB7W2D-WTTpE-33" target="OU5z0TtAZB7W2D-WTTpE-2" edge="1">
          <mxGeometry relative="1" as="geometry">
            <mxPoint x="900" y="-220" as="sourcePoint" />
            <mxPoint x="1060" y="-220" as="targetPoint" />
          </mxGeometry>
        </mxCell>
        <mxCell id="OU5z0TtAZB7W2D-WTTpE-37" value="n" style="edgeLabel;html=1;align=center;verticalAlign=middle;resizable=0;points=[];" parent="OU5z0TtAZB7W2D-WTTpE-35" vertex="1" connectable="0">
          <mxGeometry x="0.8809" relative="1" as="geometry">
            <mxPoint as="offset" />
          </mxGeometry>
        </mxCell>
        <mxCell id="OU5z0TtAZB7W2D-WTTpE-38" value="inscribe" style="shape=rhombus;perimeter=rhombusPerimeter;whiteSpace=wrap;html=1;align=center;" parent="1" vertex="1">
          <mxGeometry x="1010" y="50" width="120" height="60" as="geometry" />
        </mxCell>
        <mxCell id="OU5z0TtAZB7W2D-WTTpE-39" value="" style="endArrow=none;html=1;rounded=0;entryX=0.5;entryY=0;entryDx=0;entryDy=0;exitX=0;exitY=1;exitDx=0;exitDy=0;" parent="1" source="OU5z0TtAZB7W2D-WTTpE-2" target="OU5z0TtAZB7W2D-WTTpE-38" edge="1">
          <mxGeometry relative="1" as="geometry">
            <mxPoint x="1150" y="-70" as="sourcePoint" />
            <mxPoint x="1240" y="30" as="targetPoint" />
            <Array as="points">
              <mxPoint x="1030" y="-10" />
            </Array>
          </mxGeometry>
        </mxCell>
        <mxCell id="OU5z0TtAZB7W2D-WTTpE-40" value="" style="endArrow=none;html=1;rounded=0;exitX=0;exitY=0.5;exitDx=0;exitDy=0;" parent="1" source="OU5z0TtAZB7W2D-WTTpE-38" edge="1">
          <mxGeometry relative="1" as="geometry">
            <mxPoint x="60" y="180" as="sourcePoint" />
            <mxPoint x="230" y="140" as="targetPoint" />
            <Array as="points">
              <mxPoint x="620" y="160" />
            </Array>
          </mxGeometry>
        </mxCell>
        <mxCell id="OU5z0TtAZB7W2D-WTTpE-41" value="fecha_inscripcion" style="ellipse;whiteSpace=wrap;html=1;align=center;" parent="1" vertex="1">
          <mxGeometry x="970" y="150" width="100" height="40" as="geometry" />
        </mxCell>
        <mxCell id="OU5z0TtAZB7W2D-WTTpE-42" value="" style="endArrow=none;html=1;rounded=0;entryX=0.5;entryY=1;entryDx=0;entryDy=0;exitX=0.5;exitY=0;exitDx=0;exitDy=0;" parent="1" source="OU5z0TtAZB7W2D-WTTpE-41" target="OU5z0TtAZB7W2D-WTTpE-38" edge="1">
          <mxGeometry relative="1" as="geometry">
            <mxPoint x="910" y="130" as="sourcePoint" />
            <mxPoint x="120" y="240" as="targetPoint" />
          </mxGeometry>
        </mxCell>
        <mxCell id="OU5z0TtAZB7W2D-WTTpE-43" value="desierto" style="ellipse;whiteSpace=wrap;html=1;align=center;" parent="1" vertex="1">
          <mxGeometry x="280" y="170" width="100" height="40" as="geometry" />
        </mxCell>
        <mxCell id="OU5z0TtAZB7W2D-WTTpE-44" value="" style="endArrow=none;html=1;rounded=0;entryX=0;entryY=0;entryDx=0;entryDy=0;" parent="1" target="OU5z0TtAZB7W2D-WTTpE-43" edge="1">
          <mxGeometry relative="1" as="geometry">
            <mxPoint x="230" y="140" as="sourcePoint" />
            <mxPoint x="390" y="140" as="targetPoint" />
          </mxGeometry>
        </mxCell>
        <mxCell id="OU5z0TtAZB7W2D-WTTpE-45" value="motivo" style="ellipse;whiteSpace=wrap;html=1;align=center;" parent="1" vertex="1">
          <mxGeometry x="60" y="410" width="100" height="40" as="geometry" />
        </mxCell>
        <mxCell id="OU5z0TtAZB7W2D-WTTpE-46" value="" style="endArrow=none;html=1;rounded=0;entryX=0.5;entryY=0;entryDx=0;entryDy=0;" parent="1" target="OU5z0TtAZB7W2D-WTTpE-45" edge="1">
          <mxGeometry relative="1" as="geometry">
            <mxPoint x="100" y="320" as="sourcePoint" />
            <mxPoint x="260" y="320" as="targetPoint" />
          </mxGeometry>
        </mxCell>
        <mxCell id="OU5z0TtAZB7W2D-WTTpE-47" value="realiza" style="shape=rhombus;perimeter=rhombusPerimeter;whiteSpace=wrap;html=1;align=center;" parent="1" vertex="1">
          <mxGeometry x="380" y="370" width="120" height="60" as="geometry" />
        </mxCell>
        <mxCell id="OU5z0TtAZB7W2D-WTTpE-50" value="Area" style="shape=ext;margin=3;double=1;whiteSpace=wrap;html=1;align=center;" parent="1" vertex="1">
          <mxGeometry x="470" y="545" width="100" height="40" as="geometry" />
        </mxCell>
        <mxCell id="OU5z0TtAZB7W2D-WTTpE-51" value="pertenece" style="shape=rhombus;double=1;perimeter=rhombusPerimeter;whiteSpace=wrap;html=1;align=center;" parent="1" vertex="1">
          <mxGeometry x="540" y="460" width="120" height="60" as="geometry" />
        </mxCell>
        <mxCell id="OU5z0TtAZB7W2D-WTTpE-52" value="telefono" style="ellipse;whiteSpace=wrap;html=1;align=center;" parent="1" vertex="1">
          <mxGeometry x="314" y="600" width="100" height="40" as="geometry" />
        </mxCell>
        <mxCell id="OU5z0TtAZB7W2D-WTTpE-55" value="" style="endArrow=none;html=1;rounded=0;entryX=0.5;entryY=1;entryDx=0;entryDy=0;exitX=1;exitY=0.5;exitDx=0;exitDy=0;" parent="1" source="OU5z0TtAZB7W2D-WTTpE-52" target="OU5z0TtAZB7W2D-WTTpE-50" edge="1">
          <mxGeometry relative="1" as="geometry">
            <mxPoint x="410" y="620" as="sourcePoint" />
            <mxPoint x="570" y="620" as="targetPoint" />
          </mxGeometry>
        </mxCell>
        <mxCell id="OU5z0TtAZB7W2D-WTTpE-56" value="direccion" style="ellipse;whiteSpace=wrap;html=1;align=center;" parent="1" vertex="1">
          <mxGeometry x="470" y="630" width="100" height="40" as="geometry" />
        </mxCell>
        <mxCell id="OU5z0TtAZB7W2D-WTTpE-57" value="" style="endArrow=none;html=1;rounded=0;entryX=0.5;entryY=1;entryDx=0;entryDy=0;exitX=0.5;exitY=0;exitDx=0;exitDy=0;" parent="1" source="OU5z0TtAZB7W2D-WTTpE-56" target="OU5z0TtAZB7W2D-WTTpE-50" edge="1">
          <mxGeometry relative="1" as="geometry">
            <mxPoint x="530" y="630" as="sourcePoint" />
            <mxPoint x="690" y="630" as="targetPoint" />
          </mxGeometry>
        </mxCell>
        <mxCell id="OU5z0TtAZB7W2D-WTTpE-58" value="" style="shape=link;html=1;rounded=0;exitX=0.5;exitY=1;exitDx=0;exitDy=0;entryX=0.5;entryY=0;entryDx=0;entryDy=0;" parent="1" source="OU5z0TtAZB7W2D-WTTpE-51" target="OU5z0TtAZB7W2D-WTTpE-50" edge="1">
          <mxGeometry relative="1" as="geometry">
            <mxPoint x="250" y="440" as="sourcePoint" />
            <mxPoint x="410" y="440" as="targetPoint" />
          </mxGeometry>
        </mxCell>
        <mxCell id="OU5z0TtAZB7W2D-WTTpE-59" value="N" style="resizable=0;html=1;whiteSpace=wrap;align=right;verticalAlign=bottom;" parent="OU5z0TtAZB7W2D-WTTpE-58" connectable="0" vertex="1">
          <mxGeometry x="1" relative="1" as="geometry" />
        </mxCell>
        <mxCell id="OU5z0TtAZB7W2D-WTTpE-63" value="tiene" style="shape=rhombus;perimeter=rhombusPerimeter;whiteSpace=wrap;html=1;align=center;" parent="1" vertex="1">
          <mxGeometry x="860" y="440" width="120" height="60" as="geometry" />
        </mxCell>
        <mxCell id="OU5z0TtAZB7W2D-WTTpE-64" value="" style="endArrow=none;html=1;rounded=0;entryX=0;entryY=0.5;entryDx=0;entryDy=0;" parent="1" target="OU5z0TtAZB7W2D-WTTpE-63" edge="1">
          <mxGeometry relative="1" as="geometry">
            <mxPoint x="720" y="400" as="sourcePoint" />
            <mxPoint x="880" y="400" as="targetPoint" />
          </mxGeometry>
        </mxCell>
        <mxCell id="OU5z0TtAZB7W2D-WTTpE-67" value="1" style="edgeLabel;html=1;align=center;verticalAlign=middle;resizable=0;points=[];" parent="OU5z0TtAZB7W2D-WTTpE-64" vertex="1" connectable="0">
          <mxGeometry x="-0.7982" y="1" relative="1" as="geometry">
            <mxPoint as="offset" />
          </mxGeometry>
        </mxCell>
        <mxCell id="OU5z0TtAZB7W2D-WTTpE-65" value="" style="endArrow=none;html=1;rounded=0;entryX=0.5;entryY=1;entryDx=0;entryDy=0;" parent="1" target="OU5z0TtAZB7W2D-WTTpE-28" edge="1">
          <mxGeometry relative="1" as="geometry">
            <mxPoint x="980" y="470" as="sourcePoint" />
            <mxPoint x="1140" y="470" as="targetPoint" />
          </mxGeometry>
        </mxCell>
        <mxCell id="OU5z0TtAZB7W2D-WTTpE-66" value="n" style="edgeLabel;html=1;align=center;verticalAlign=middle;resizable=0;points=[];" parent="OU5z0TtAZB7W2D-WTTpE-65" vertex="1" connectable="0">
          <mxGeometry x="0.6756" relative="1" as="geometry">
            <mxPoint as="offset" />
          </mxGeometry>
        </mxCell>
        <mxCell id="OU5z0TtAZB7W2D-WTTpE-68" value="duda" style="whiteSpace=wrap;html=1;" parent="1" vertex="1">
          <mxGeometry x="-150" y="400" width="90" height="40" as="geometry" />
        </mxCell>
        <mxCell id="OU5z0TtAZB7W2D-WTTpE-69" value="" style="endArrow=none;html=1;rounded=0;entryX=0.5;entryY=1;entryDx=0;entryDy=0;" parent="1" target="n6jxIngj1ZCcTk-adQS_-38" edge="1">
          <mxGeometry relative="1" as="geometry">
            <mxPoint x="600" y="460" as="sourcePoint" />
            <mxPoint x="760" y="460" as="targetPoint" />
          </mxGeometry>
        </mxCell>
        <mxCell id="OU5z0TtAZB7W2D-WTTpE-70" value="1" style="edgeLabel;html=1;align=center;verticalAlign=middle;resizable=0;points=[];" parent="OU5z0TtAZB7W2D-WTTpE-69" vertex="1" connectable="0">
          <mxGeometry x="0.3833" y="1" relative="1" as="geometry">
            <mxPoint as="offset" />
          </mxGeometry>
        </mxCell>
        <mxCell id="OU5z0TtAZB7W2D-WTTpE-71" value="figura" style="ellipse;whiteSpace=wrap;html=1;align=center;" parent="1" vertex="1">
          <mxGeometry x="-20" y="210" width="100" height="40" as="geometry" />
        </mxCell>
        <mxCell id="OU5z0TtAZB7W2D-WTTpE-72" value="" style="endArrow=none;html=1;rounded=0;entryX=0.25;entryY=0;entryDx=0;entryDy=0;" parent="1" target="n6jxIngj1ZCcTk-adQS_-20" edge="1">
          <mxGeometry relative="1" as="geometry">
            <mxPoint x="20" y="250" as="sourcePoint" />
            <mxPoint x="180" y="250" as="targetPoint" />
          </mxGeometry>
        </mxCell>
        <mxCell id="OU5z0TtAZB7W2D-WTTpE-73" value="&lt;span style=&quot;border-bottom: 1px dotted&quot;&gt;nro_area&lt;/span&gt;" style="ellipse;whiteSpace=wrap;html=1;align=center;" parent="1" vertex="1">
          <mxGeometry x="310" y="530" width="100" height="40" as="geometry" />
        </mxCell>
        <mxCell id="OU5z0TtAZB7W2D-WTTpE-74" value="" style="endArrow=none;html=1;rounded=0;entryX=0;entryY=0.5;entryDx=0;entryDy=0;" parent="1" target="OU5z0TtAZB7W2D-WTTpE-50" edge="1">
          <mxGeometry relative="1" as="geometry">
            <mxPoint x="410" y="550" as="sourcePoint" />
            <mxPoint x="570" y="550" as="targetPoint" />
          </mxGeometry>
        </mxCell>
        <mxCell id="BQk9i2O51LZGIAI5Ooql-3" value="" style="endArrow=none;html=1;rounded=0;entryX=0.5;entryY=1;entryDx=0;entryDy=0;exitX=0.25;exitY=0;exitDx=0;exitDy=0;" edge="1" parent="1" source="OU5z0TtAZB7W2D-WTTpE-50" target="OU5z0TtAZB7W2D-WTTpE-47">
          <mxGeometry width="50" height="50" relative="1" as="geometry">
            <mxPoint x="460" y="510" as="sourcePoint" />
            <mxPoint x="510" y="460" as="targetPoint" />
          </mxGeometry>
        </mxCell>
      </root>
    </mxGraphModel>
  </diagram>
</mxfile>
